<?xml version="1.0" encoding="UTF-8"?>
<!DOCTYPE svg PUBLIC "-//W3C//DTD SVG 1.1//EN" "http://www.w3.org/Graphics/SVG/1.1/DTD/svg11.dtd">
<!-- Creator: CorelDRAW 2017 -->
<svg xmlns="http://www.w3.org/2000/svg" xml:space="preserve" width="540px" height="240px" version="1.1" style="shape-rendering:geometricPrecision; text-rendering:geometricPrecision; image-rendering:optimizeQuality; fill-rule:evenodd; clip-rule:evenodd"
viewBox="0 0 104930 46640"
 xmlns:xlink="http://www.w3.org/1999/xlink">
 <defs>
  <style type="text/css">
   <![CDATA[
    .fil1 {fill:black}
    .fil0 {fill:white}
   ]]>
  </style>
 </defs>
 <g id="Capa_x0020_1">
  <metadata id="CorelCorpID_0Corel-Layer"/>
  <rect class="fil0" width="104930" height="46640"/>
  <g id="_2622783300656">
   <path class="fil1" d="M54110 22010c-900,4270 -2620,5110 -7010,5110 -4780,0 -5530,-1390 -4410,-6640 970,-4570 2140,-6670 7240,-6670 3870,0 5800,590 4930,4710l-3130 0c430,-1990 -120,-2330 -2300,-2330 -2680,0 -2910,940 -3620,4290 -690,3240 -950,4260 1800,4260 2550,0 2900,-450 3380,-2730l3120 0z"/>
   <g>
    <path class="fil1" d="M68170 20480c-1070,5030 -2110,6640 -7540,6640 -5430,0 -5780,-1610 -4710,-6640 1080,-5060 2110,-6670 7540,-6670 5430,0 5790,1610 4710,6670l0 0zm-9130 20c-740,3470 -680,4240 2100,4240 2780,0 3160,-770 3900,-4240 750,-3520 700,-4310 -2080,-4310 -2780,0 -3170,790 -3920,4310z"/>
   </g>
   <path class="fil1" d="M74480 13960l-400 1880 100 0c1040,-1660 2880,-2030 4520,-2030 1640,0 3430,420 3380,2300l100 0c980,-1810 2870,-2300 4600,-2300 3370,0 4240,1160 3560,4360l-1870 8800 -3120 0 1800 -8500c280,-1640 20,-2280 -1690,-2280 -2530,0 -3270,1140 -3760,3440l-1560 7340 -3120 0 1800 -8500c280,-1640 20,-2280 -1690,-2280 -2530,0 -3270,1140 -3760,3440l-1560 7340 -3120 0 2760 -13010 3030 0z"/>
   <path class="fil1" d="M22230 13810c-5250,0 -6430,2030 -7420,6690 -1070,5030 -390,6620 4590,6620 3720,0 6120,-200 6990,-4290l-3120 0c-420,1940 -1630,1910 -3360,1910 -2800,0 -2690,-890 -2090,-3690l10 0 430 -1990 -20 0c490,-2300 790,-2870 3490,-2870 2550,0 2900,190 2340,2870l-4280 0 -430 1990 7410 0c1210,-5680 820,-7240 -4540,-7240z"/>
   <path class="fil1" d="M32040 20830c660,-3090 910,-4650 4100,-4650 2850,0 2410,1710 1790,4650 -700,3270 -1450,3890 -3600,3890 -550,0 -1000,-50 -1350,-150l-460 2170c630,280 1430,350 2220,350 4450,0 5490,-2450 6300,-6260 850,-3980 1350,-7020 -3470,-7020 -1840,0 -3350,390 -4510,2100l-100 0 540 -1960 -3120 0 -3630 17130 3120 0 1240 -5870 930 -4380z"/>
   <g id="_2622783300720">
    <g>
     <path class="fil1" d="M80840 30120c-20,-170 -30,-340 -120,-490 -80,-140 -270,-250 -360,-290 -90,-30 -180,-60 -280,-80 -100,-20 -200,-30 -300,-40 -200,-20 -390,-20 -590,-20l-1190 0c-530,0 -1070,-10 -1600,90 -500,80 -1040,340 -1280,820l5250 0 -10 10 480 0 0 0z"/>
    </g>
    <g>
     <g>
      <path class="fil1" d="M87880 30110c-30,-440 -340,-850 -780,-900 -280,-30 -580,-10 -870,-10 -610,0 -1210,0 -1820,0 -720,0 -1450,0 -2170,0 -90,0 -270,-40 -310,50 -120,290 -250,580 -370,860 890,0 1780,0 2680,0 1210,0 2430,0 3640,0z"/>
     </g>
     <g>
      <path class="fil1" d="M61800 30110c-80,-170 -170,-340 -250,-510 -50,-110 -110,-210 -160,-320 -10,-20 -20,-80 -60,-80 -390,0 -780,0 -1170,0 150,310 300,610 450,910 400,0 790,0 1190,0z"/>
     </g>
     <g>
      <path class="fil1" d="M80600 30760c-370,0 -850,0 -1220,0 -100,230 -210,540 -420,710 -230,190 -480,220 -770,250 -260,20 -540,10 -800,10 -270,0 -540,10 -800,-20 -240,-20 -600,-10 -740,-250 -130,-220 60,-500 160,-700 -10,0 -20,0 -30,0 -350,0 -700,0 -1050,0 -40,0 -80,0 -130,0 -10,0 -40,120 -50,150 -50,130 -110,260 -140,400 -60,280 -110,540 -60,820 60,280 300,450 550,540 230,100 520,120 770,130 260,20 520,30 780,30 570,0 1130,-10 1690,-60 530,-40 1100,-140 1470,-560 180,-200 310,-440 430,-670 70,-130 140,-260 200,-400l160 -380z"/>
     </g>
     <g>
      <path class="fil1" d="M81370 30760c-20,0 -90,-20 -110,0l-880 2070 1150 0c50,0 80,20 90,-30 20,-70 50,-120 80,-180 50,-120 100,-250 160,-370 240,-480 400,-1010 640,-1490 -20,0 -30,0 -50,0 -360,0 -720,0 -1080,0z"/>
     </g>
     <g>
      <path class="fil1" d="M83960 30760c-20,0 -90,-20 -110,0l-880 2070 1150 0c50,0 80,20 90,-30 20,-70 50,-120 80,-180 50,-120 100,-250 160,-370 240,-480 400,-1010 640,-1490 -20,0 -30,0 -50,0 -360,0 -720,0 -1080,0z"/>
     </g>
     <g>
      <path class="fil1" d="M86550 30760c-20,0 -90,-20 -110,0l-880 2070 1150 0c50,0 80,20 90,-30 20,-70 50,-120 80,-180 50,-120 100,-250 160,-370 240,-480 390,-1010 640,-1490 -20,0 -30,0 -50,0 -360,0 -720,0 -1080,0z"/>
     </g>
     <g>
      <path class="fil1" d="M64200 30110c340,-300 680,-610 1020,-910 -230,0 -460,0 -680,0 -160,0 -310,0 -470,0 -30,0 -150,-20 -170,0 -340,310 -680,610 -1020,910 220,0 450,0 680,0 160,0 310,0 470,0 30,0 140,20 170,0z"/>
     </g>
     <g>
      <path class="fil1" d="M61210 31050c10,40 60,90 40,130 -70,170 -140,340 -210,510 -160,380 -320,760 -480,1140 60,0 130,0 190,0 360,0 710,0 1070,0 50,0 70,-120 90,-160 80,-180 150,-350 230,-530 70,-180 150,-370 240,-550 20,-70 50,-210 100,-250 220,-200 440,-390 650,-580 -690,0 -1370,0 -2060,0 40,90 90,190 140,290z"/>
     </g>
     <g>
      <path class="fil1" d="M71310 31730c-160,0 -490,90 -590,-100 -120,-240 70,-540 170,-760 20,-40 30,-80 50,-110 -260,-10 -520,-10 -790,-10 -140,0 -290,0 -430,0 -20,0 -60,-10 -80,0 -20,10 -50,130 -60,160 -110,230 -160,500 -210,750 -40,260 -40,560 100,790 250,420 800,380 1230,380 760,0 1530,0 2300,0 80,0 170,0 250,0 30,0 80,-180 100,-210 130,-290 250,-590 380,-880 -80,0 -150,0 -230,0 -730,-10 -1460,-10 -2190,-10z"/>
     </g>
     <g>
      <path class="fil1" d="M72940 29200c-380,0 -760,0 -1140,0 -180,0 -360,0 -540,20 -470,50 -980,310 -1200,750 -30,50 -60,100 -90,150 560,0 1120,-10 1670,-10 790,0 1570,0 2350,0 120,0 240,0 360,0 60,0 80,20 100,-30 130,-300 250,-590 370,-880 -630,0 -1250,0 -1880,0z"/>
     </g>
     <g>
      <path class="fil1" d="M68570 30760c-1170,0 -2340,0 -3510,0 90,190 430,240 610,270 590,80 1180,160 1770,220 150,20 330,80 360,180 40,90 -30,160 -50,180 -40,50 -130,70 -190,90 -190,40 -370,40 -570,40 -770,0 -1530,0 -2300,0 -80,0 -170,0 -250,0 -40,0 -90,170 -100,200 -130,300 -260,590 -380,890 1080,0 2160,0 3240,0 500,0 1070,-160 1400,-560 170,-200 220,-470 280,-720 50,-240 50,-570 -140,-740 -50,-40 -100,-50 -170,-50z"/>
     </g>
     <g>
      <path class="fil1" d="M58660 30810c-40,-50 -110,-50 -170,-50 -1170,0 -2340,0 -3510,0 170,170 370,240 620,270 590,80 1190,130 1770,220 160,30 360,110 370,190 20,80 -30,150 -60,180 -40,30 -130,60 -200,80 -190,40 -370,40 -570,40 -760,0 -1530,0 -2290,0 -80,0 -170,0 -250,0 -40,0 -90,170 -100,200 -130,290 -260,590 -380,890 1070,0 2150,0 3230,0 240,0 500,-50 730,-120 250,-60 490,-250 670,-430 170,-170 260,-500 290,-730 20,-220 70,-590 -150,-740z"/>
     </g>
     <g>
      <path class="fil1" d="M68820 29200c-710,0 -1420,0 -2130,0 -200,0 -440,40 -620,120 -120,60 -230,120 -330,210 -90,70 -220,160 -290,260 -60,120 -160,200 -200,330 420,0 840,0 1270,0 780,0 1560,0 2350,-10 90,0 190,0 290,0 60,0 60,10 80,-40 130,-290 250,-580 380,-870 -270,0 -530,0 -800,0z"/>
     </g>
     <g>
      <path class="fil1" d="M56600 29200c-210,0 -430,60 -630,130 -240,90 -460,270 -600,460 -80,100 -170,210 -200,320 420,0 840,0 1270,0 780,0 1560,0 2350,0 90,0 190,0 290,0 60,0 60,10 80,-40 130,-290 250,-580 380,-870 -280,0 -550,0 -820,0 -710,0 -1410,0 -2120,0z"/>
     </g>
    </g>
   </g>
  </g>
 </g>
</svg>
